<svg width="220" height="86" viewBox="0 0 220 86" fill="none" xmlns="http://www.w3.org/2000/svg">
<g clip-path="url(#clip0_0_8)">
<path d="M98.1214 35.1842C96.7308 35 95.4709 34.4007 94.3338 33.3899C93.8861 32.9981 93.6603 32.622 93.6603 32.2616C93.6603 32.1284 93.692 31.9952 93.7554 31.8581C93.8188 31.7131 93.9257 31.576 94.0763 31.4467C94.2268 31.3175 94.3813 31.2274 94.5398 31.1764C94.7181 31.1373 94.8885 31.1137 95.0549 31.1137C95.1817 31.1137 95.3045 31.1255 95.4313 31.1451C95.7244 31.1882 95.9582 31.2861 96.1365 31.4389C96.2395 31.5329 96.4336 31.6505 96.7149 31.7954C96.9962 31.9404 97.2736 32.0657 97.5469 32.1676C97.8916 32.293 98.2482 32.3517 98.6127 32.3517C98.9772 32.3517 99.3258 32.2969 99.6943 32.1833C100.447 31.9678 101.113 31.6191 101.691 31.1373C102.27 30.6554 102.602 30.2558 102.686 29.9385C102.769 29.6211 102.812 29.4135 102.812 29.3195C102.812 28.9081 102.579 28.5359 102.107 28.2029C101.525 27.7994 100.451 27.5644 98.898 27.4899C97.6539 27.4586 96.4336 27.2588 95.2252 26.8866C94.0208 26.5144 92.9986 25.915 92.1666 25.0845C91.3307 24.254 90.8513 23.1374 90.7245 21.731V21.4372C90.7245 20.1757 91.0969 19.0513 91.8378 18.0641C92.65 16.9907 93.7157 16.117 95.0311 15.4471C96.3465 14.7772 97.4518 14.3972 98.3472 14.311C99.2426 14.2248 99.8488 14.1778 100.166 14.1778C101.251 14.1778 102.258 14.3658 103.189 14.7341C103.886 15.0318 104.544 15.4706 105.154 16.0504C105.764 16.6302 106.2 17.2179 106.461 17.8173C106.513 17.9622 106.576 18.2051 106.655 18.546C106.735 18.8868 106.802 19.2316 106.857 19.5763C106.913 19.9211 106.945 20.1875 106.945 20.3755C106.933 21.4058 106.509 22.017 105.661 22.2011C105.546 22.2207 105.431 22.2325 105.316 22.2325C105.106 22.2325 104.904 22.1972 104.706 22.1228C104.405 22.0092 104.163 21.8289 103.985 21.5821C103.941 21.5195 103.91 21.4529 103.882 21.3823C103.854 21.3118 103.835 21.2139 103.819 21.0885C103.803 20.9631 103.791 20.7947 103.779 20.5792C103.652 19.5371 103.296 18.879 102.709 18.6047C102.119 18.3305 101.648 18.1934 101.291 18.1934C100.78 18.1934 100.253 18.3579 99.7102 18.6909C99.0327 19.1532 98.5652 19.639 98.3076 20.1444C98.0541 20.6497 97.9233 21.065 97.9233 21.3823C97.9233 21.5782 97.959 21.7663 98.0343 21.9386C98.1492 22.1854 98.4344 22.3931 98.8861 22.5655C99.3417 22.7339 100.043 22.9024 100.99 23.0669C102.012 23.2432 102.804 23.4117 103.371 23.5684C103.934 23.729 104.524 23.9641 105.138 24.2736C106.422 24.9121 107.234 25.6055 107.571 26.3499C107.907 27.0943 108.082 27.7485 108.082 28.3166C108.082 28.7397 108.014 29.1667 107.88 29.6015C107.575 30.6436 106.972 31.6309 106.065 32.5594C105.094 33.5192 103.961 34.2048 102.662 34.62C101.362 35.0353 100.178 35.239 99.1159 35.239C98.7949 35.239 98.4661 35.2234 98.1293 35.192L98.1214 35.1842Z" fill="#42C2B2"/>
<path d="M117.566 35.3254C115.383 35.1805 113.486 34.2794 111.869 32.6144C110.669 31.3647 109.896 29.9269 109.551 28.2933C109.456 27.7997 109.405 27.2864 109.393 26.7615C109.381 26.2365 109.377 25.8722 109.377 25.6763C109.377 25.0887 109.397 24.5559 109.44 24.0818C109.88 20.1407 111.457 17.3121 114.171 15.5962C115.748 14.5541 117.344 14.0331 118.961 14.0331C119.076 14.0331 119.195 14.037 119.321 14.0488C120.542 14.1193 121.6 14.4523 122.499 15.0399C123.394 15.6276 124.001 16.3014 124.314 17.0614C124.627 17.8214 124.781 18.5188 124.781 19.1574C124.781 19.6118 124.726 20.0858 124.611 20.5834C124.088 22.409 123.073 23.8664 121.572 24.9476C120.07 26.0328 118.375 26.644 116.485 26.7889L115.922 26.8359L115.954 27.0827C116.12 28.4774 116.501 29.5391 117.095 30.2717C117.388 30.6635 117.673 30.9534 117.955 31.1375C118.236 31.3216 118.577 31.4587 118.973 31.541C119.183 31.5919 119.369 31.6194 119.535 31.6194C119.63 31.6194 119.714 31.6154 119.785 31.6037C120.003 31.5723 120.288 31.4744 120.629 31.3099C120.859 31.1963 121.045 31.0905 121.192 30.9847C121.338 30.8828 121.493 30.7379 121.659 30.5498C122.035 30.1698 122.321 29.8799 122.519 29.684C122.717 29.4882 122.871 29.351 122.978 29.2727C123.089 29.1943 123.208 29.1356 123.331 29.0964C123.541 29.0259 123.747 28.9867 123.957 28.9867C124.135 28.9867 124.306 29.0141 124.472 29.0651C124.836 29.1787 125.126 29.3902 125.332 29.6997C125.466 29.9387 125.534 30.1894 125.534 30.4597C125.534 30.7301 125.47 30.9847 125.348 31.2629C125.169 31.5919 124.793 32.0307 124.218 32.5713C123.644 33.112 123.034 33.6017 122.388 34.0365C121.489 34.6242 120.55 35.0277 119.571 35.2432C119.341 35.2863 119.104 35.3098 118.858 35.3215C118.612 35.3333 118.426 35.3372 118.303 35.3372C118.062 35.3372 117.812 35.3333 117.55 35.3215L117.566 35.3254ZM117.459 23.6979C118.386 23.408 119.076 23.0985 119.524 22.7694C120.359 22.1113 120.875 21.5119 121.073 20.9751C121.271 20.4384 121.37 20.0153 121.37 19.7058C121.37 19.4668 121.322 19.2475 121.227 19.0398C121.041 18.6285 120.712 18.4208 120.241 18.4208L120.07 18.4365C119.508 18.4874 118.822 18.9301 118.018 19.7685C117.067 20.7479 116.453 21.9115 116.172 23.2513C116.108 23.5098 116.073 23.6783 116.065 23.7527C116.053 23.8311 116.049 23.8781 116.049 23.9016C116.049 23.9525 116.065 23.9839 116.096 23.9956C116.116 24.0074 116.148 24.0113 116.192 24.0113C116.235 24.0113 116.279 24.0074 116.334 23.9956C116.417 23.9839 116.568 23.9525 116.782 23.8938C116.996 23.8389 117.222 23.7723 117.463 23.7018L117.459 23.6979Z" fill="#42C2B2"/>
<path d="M129.309 35.8191C128.945 35.7055 128.639 35.5214 128.402 35.2628C128.255 35.1179 128.144 34.9807 128.073 34.8436C128.002 34.7104 127.946 34.542 127.914 34.3422C127.883 34.1424 127.851 33.8603 127.819 33.4999C127.807 33.2609 127.792 33.0023 127.764 32.7242C127.736 32.446 127.716 32.2071 127.693 32.0112C127.681 31.8153 127.665 31.5685 127.637 31.2747C127.613 30.9808 127.59 30.7027 127.566 30.448C127.554 30.1895 127.538 29.9466 127.518 29.7115C127.498 29.4765 127.483 29.3119 127.471 29.2101C127.459 29.1082 127.443 28.928 127.423 28.6773C127.403 28.4265 127.38 28.1601 127.36 27.8781C127.34 27.5882 127.32 27.2904 127.296 26.9809C127.277 26.6714 127.257 26.4207 127.249 26.2209C127.229 26.025 127.209 25.7821 127.185 25.4922C127.166 25.2023 127.142 24.9359 127.122 24.6891C127.11 24.5872 127.102 24.4658 127.09 24.3326C127.071 24.0662 127.047 23.7724 127.019 23.459C126.991 23.1456 126.971 22.8478 126.948 22.5697C126.833 21.0849 126.773 19.9448 126.773 19.1496C126.773 18.3543 126.837 17.6961 126.96 17.1986C127.177 16.3093 127.653 15.702 128.386 15.373C128.406 15.3612 128.433 15.3534 128.465 15.3416C128.548 15.3024 128.632 15.2633 128.707 15.2241C128.786 15.1888 128.842 15.1614 128.873 15.1379C129.04 15.0556 129.242 14.9851 129.475 14.9303C129.709 14.8754 129.923 14.8441 130.109 14.8441C131.028 14.8441 132.023 15.369 133.101 16.4229C133.382 16.7128 133.691 17.0458 134.032 17.4219C134.372 17.798 134.666 18.1467 134.915 18.4679C134.935 18.4992 134.983 18.5541 135.058 18.6364C135.109 18.7069 135.165 18.7813 135.228 18.8518C135.957 19.7607 136.845 20.936 137.891 22.3816C138.16 22.7616 138.429 23.1338 138.687 23.4981C138.944 23.8625 139.146 24.1328 139.281 24.3169C139.408 24.4815 139.539 24.6617 139.681 24.8576C139.824 25.0534 139.935 25.2141 140.018 25.3394C140.101 25.4648 140.181 25.5667 140.256 25.6489C140.327 25.7312 140.371 25.7743 140.383 25.7743C140.402 25.7743 140.414 25.7273 140.414 25.6333C140.414 25.5392 140.41 25.4217 140.398 25.2768C140.367 24.885 140.335 24.2699 140.295 23.4276C140.256 22.5853 140.228 21.7078 140.2 20.795C140.173 19.8822 140.161 19.1574 140.161 18.6207V18.3269C140.161 17.0654 140.224 16.1408 140.351 15.5414C140.486 14.9107 140.743 14.4366 141.12 14.1154C141.337 13.9195 141.555 13.7746 141.769 13.6805C141.983 13.5865 142.241 13.5317 142.546 13.5121H142.716C142.831 13.5121 142.93 13.516 143.013 13.5278C143.128 13.5395 143.259 13.5748 143.406 13.6374C144.218 13.9665 144.733 14.6443 144.939 15.6668C145.002 16.1016 145.034 16.8029 145.034 17.7706V18.5619C145.022 19.9566 144.967 21.3748 144.864 22.8204C144.844 23.079 144.824 23.3414 144.808 23.6078C144.792 23.8782 144.78 24.0936 144.768 24.2582C144.757 24.411 144.745 24.6225 144.729 24.8928C144.713 25.1592 144.697 25.4256 144.673 25.6842C144.59 26.8516 144.507 28.7791 144.424 31.4745C144.412 31.9485 144.404 32.3167 144.392 32.5753C144.38 32.8339 144.368 33.0258 144.345 33.1473C144.325 33.2727 144.297 33.3588 144.265 33.4098C143.972 34.0092 143.441 34.3696 142.669 34.495C142.387 34.538 142.11 34.5576 141.841 34.5576C141.571 34.5576 141.333 34.538 141.135 34.495C140.355 34.2795 139.741 33.8172 139.305 33.1159C139.242 33.0219 139.162 32.9083 139.063 32.7751C138.964 32.6419 138.861 32.5126 138.758 32.3873C138.291 31.8505 137.74 31.2041 137.106 30.4441C136.476 29.6841 135.882 28.9554 135.327 28.2542C134.491 27.1925 133.794 26.3071 133.231 25.6058C132.938 25.2572 132.716 24.9829 132.558 24.7949C132.399 24.6029 132.292 24.4658 132.229 24.3757C132.166 24.2895 132.118 24.2268 132.086 24.1955C132.067 24.1641 132.047 24.1446 132.031 24.1328C132.015 24.121 132.003 24.1171 131.991 24.1171L131.975 24.1328C131.956 24.1641 131.94 24.4893 131.928 25.1083C131.916 25.7273 131.908 26.4912 131.896 27.4001C131.876 29.8565 131.853 31.6312 131.833 32.7163C131.813 33.8055 131.781 34.3931 131.738 34.4754C131.52 35.1257 131.08 35.5645 130.422 35.7917C130.244 35.8426 130.093 35.87 129.971 35.87H129.721C129.555 35.87 129.412 35.8544 129.297 35.823L129.309 35.8191Z" fill="#42C2B2"/>
<path d="M149.975 35.2155C149.068 34.957 148.45 34.3968 148.129 33.527C147.974 33.1784 147.836 31.9482 147.721 29.8405C147.606 28.0541 147.527 26.5497 147.487 25.3196C147.444 24.0894 147.424 22.7535 147.424 21.3118C147.424 19.4862 147.463 18.213 147.551 17.4961C147.638 16.7791 147.808 16.1837 148.07 15.7096C148.454 14.9966 148.894 14.55 149.385 14.362C149.876 14.1739 150.272 14.0838 150.577 14.0838C150.942 14.0838 151.318 14.17 151.703 14.3463L151.984 14.503L152.594 14.3776C153.002 14.2954 153.64 14.2444 154.504 14.2209C154.856 14.2092 155.15 14.2052 155.379 14.2052H155.692C155.962 14.217 156.263 14.2523 156.584 14.3149C157.075 14.3972 157.582 14.5226 158.109 14.695C158.636 14.8634 159.096 15.0515 159.48 15.2591C161.191 16.1876 162.479 17.4765 163.347 19.1297C163.973 20.3794 164.286 21.7349 164.286 23.2001V23.4783C164.242 25.0375 163.858 26.5497 163.129 28.0149C162.19 29.8405 160.771 31.3958 158.87 32.673C158.39 32.9825 157.832 33.292 157.194 33.6015C156.556 33.911 155.982 34.1499 155.47 34.3145C155.003 34.4673 154.417 34.624 153.719 34.7768C153.018 34.9335 152.455 35.0353 152.028 35.0863C151.913 35.098 151.794 35.1137 151.675 35.1411C151.556 35.1685 151.465 35.192 151.402 35.2116C151.275 35.2626 151.1 35.29 150.871 35.29H150.764C150.482 35.29 150.221 35.2626 149.979 35.2116L149.975 35.2155ZM155.031 29.5663C155.886 28.8141 156.667 27.917 157.372 26.8788C158.077 25.8406 158.596 24.8377 158.929 23.8661C159.044 23.4861 159.111 23.1414 159.123 22.8358C159.139 22.5302 159.147 22.3343 159.147 22.2403C159.147 21.8564 159.115 21.5273 159.052 21.2492C158.834 20.3834 158.343 19.7174 157.578 19.2512C156.619 18.6753 155.526 18.3854 154.306 18.3854H153.648V21.4646C153.648 22.6007 153.636 23.5723 153.616 24.3833C153.596 25.1942 153.561 26.0483 153.505 26.9454C153.466 27.6271 153.422 28.2657 153.39 28.8651C153.355 29.4644 153.331 29.8758 153.319 30.103L153.272 30.863L153.913 30.4125C154.1 30.2872 154.298 30.1461 154.508 29.9855C154.718 29.8249 154.888 29.6838 155.027 29.5585L155.031 29.5663Z" fill="#42C2B2"/>
<path d="M168.418 35.1529C167.518 34.8748 166.952 34.295 166.71 33.4174C166.69 33.3156 166.671 33.1354 166.655 32.8768C166.639 32.6182 166.631 32.3283 166.631 32.011C166.631 31.7211 166.627 31.4625 166.615 31.2353C166.603 31.0081 166.599 30.8788 166.599 30.8475C166.58 30.8357 166.548 30.4596 166.504 29.7113C166.461 28.9631 166.393 27.7016 166.302 25.9269L166.255 25.1982C166.215 24.4656 166.171 23.7291 166.128 22.9848C166.076 22.0994 166.049 21.1278 166.049 20.074V19.1455C166.061 18.5265 166.068 18.0525 166.08 17.7273C166.092 17.4021 166.104 17.1553 166.128 16.9908C166.148 16.8262 166.179 16.6774 166.223 16.5402C166.69 14.9418 167.665 14.1387 169.135 14.1387H169.246C169.464 14.1505 169.642 14.1701 169.777 14.2014C169.912 14.2328 170.062 14.2876 170.228 14.3699C171.096 14.7812 171.659 15.4746 171.92 16.4462C172.067 16.9712 172.138 17.9153 172.138 19.2787C172.138 20.4226 172.087 21.8682 171.98 23.6155C171.96 24.1013 171.928 24.7124 171.892 25.449C171.857 26.1855 171.821 26.875 171.789 27.5175C171.758 28.1482 171.726 28.7398 171.694 29.2922C171.663 29.8445 171.643 30.2285 171.631 30.4439C171.611 30.6516 171.595 30.9101 171.583 31.2275C171.572 31.5448 171.568 31.8347 171.568 32.1011C171.568 32.771 171.52 33.2725 171.417 33.6016C171.318 33.9306 171.132 34.2323 170.862 34.4987C170.351 34.9845 169.761 35.2274 169.095 35.2274C168.877 35.2274 168.648 35.2 168.406 35.149L168.418 35.1529Z" fill="#42C2B2"/>
<path d="M176.84 35.8191C176.476 35.7055 176.171 35.5214 175.933 35.2628C175.786 35.1179 175.675 34.9807 175.604 34.8436C175.533 34.7104 175.477 34.542 175.446 34.3422C175.414 34.1424 175.382 33.8603 175.351 33.4999C175.339 33.2609 175.323 33.0023 175.295 32.7242C175.267 32.446 175.248 32.2071 175.224 32.0112C175.212 31.8153 175.196 31.5685 175.168 31.2747C175.145 30.9808 175.121 30.7027 175.097 30.448C175.085 30.1895 175.069 29.9466 175.049 29.7115C175.03 29.4765 175.014 29.3119 175.002 29.2101C174.99 29.1082 174.974 28.928 174.954 28.6773C174.935 28.4265 174.911 28.1601 174.891 27.8781C174.871 27.5882 174.851 27.2904 174.828 26.9809C174.808 26.6714 174.788 26.4207 174.78 26.2209C174.76 26.025 174.74 25.7821 174.717 25.4922C174.697 25.2023 174.673 24.9359 174.653 24.6891C174.641 24.5872 174.633 24.4658 174.622 24.3326C174.602 24.0662 174.578 23.7724 174.55 23.459C174.523 23.1456 174.503 22.8478 174.479 22.5697C174.364 21.0849 174.305 19.9448 174.305 19.1496C174.305 18.3543 174.368 17.6961 174.491 17.1986C174.709 16.3093 175.184 15.702 175.917 15.373C175.937 15.3612 175.965 15.3534 175.996 15.3416C176.08 15.3024 176.163 15.2633 176.238 15.2241C176.317 15.1888 176.373 15.1614 176.404 15.1379C176.571 15.0556 176.773 14.9851 177.007 14.9303C177.24 14.8754 177.454 14.8441 177.641 14.8441C178.56 14.8441 179.554 15.369 180.632 16.4229C180.913 16.7128 181.222 17.0458 181.563 17.4219C181.904 17.798 182.197 18.1467 182.446 18.4679C182.466 18.4992 182.514 18.5541 182.589 18.6364C182.641 18.7069 182.696 18.7813 182.759 18.8518C183.488 19.7607 184.376 20.936 185.422 22.3816C185.691 22.7616 185.961 23.1338 186.218 23.4981C186.476 23.8625 186.678 24.1328 186.812 24.3169C186.939 24.4815 187.07 24.6617 187.213 24.8576C187.355 25.0534 187.466 25.2141 187.549 25.3394C187.633 25.4648 187.712 25.5667 187.787 25.6489C187.858 25.7312 187.902 25.7743 187.914 25.7743C187.934 25.7743 187.946 25.7273 187.946 25.6333C187.946 25.5392 187.942 25.4217 187.93 25.2768C187.898 24.885 187.866 24.2699 187.827 23.4276C187.787 22.5853 187.759 21.7078 187.732 20.795C187.704 19.8822 187.692 19.1574 187.692 18.6207V18.3269C187.692 17.0654 187.755 16.1408 187.882 15.5414C188.017 14.9107 188.274 14.4366 188.651 14.1154C188.869 13.9195 189.087 13.7746 189.301 13.6805C189.514 13.5865 189.772 13.5317 190.077 13.5121H190.247C190.362 13.5121 190.461 13.516 190.545 13.5278C190.659 13.5395 190.79 13.5748 190.937 13.6374C191.749 13.9665 192.264 14.6443 192.47 15.6668C192.533 16.1016 192.565 16.8029 192.565 17.7706V18.5619C192.553 19.9566 192.498 21.3748 192.395 22.8204C192.375 23.079 192.355 23.3414 192.339 23.6078C192.324 23.8782 192.312 24.0936 192.3 24.2582C192.288 24.411 192.276 24.6225 192.26 24.8928C192.244 25.1592 192.228 25.4256 192.205 25.6842C192.121 26.8516 192.038 28.7791 191.955 31.4745C191.943 31.9485 191.935 32.3167 191.923 32.5753C191.911 32.8339 191.9 33.0258 191.876 33.1473C191.856 33.2727 191.828 33.3588 191.797 33.4098C191.503 34.0092 190.972 34.3696 190.2 34.495C189.919 34.538 189.641 34.5576 189.372 34.5576C189.102 34.5576 188.865 34.538 188.667 34.495C187.886 34.2795 187.272 33.8172 186.836 33.1159C186.773 33.0219 186.694 32.9083 186.595 32.7751C186.495 32.6419 186.392 32.5126 186.289 32.3873C185.822 31.8505 185.271 31.2041 184.637 30.4441C184.007 29.6841 183.413 28.9554 182.858 28.2542C182.022 27.1925 181.325 26.3071 180.763 25.6058C180.469 25.2572 180.248 24.9829 180.089 24.7949C179.931 24.6029 179.824 24.4658 179.76 24.3757C179.697 24.2895 179.649 24.2268 179.618 24.1955C179.598 24.1641 179.578 24.1446 179.562 24.1328C179.546 24.121 179.534 24.1171 179.522 24.1171L179.507 24.1328C179.487 24.1641 179.471 24.4893 179.459 25.1083C179.447 25.7273 179.439 26.4912 179.427 27.4001C179.408 29.8565 179.384 31.6312 179.364 32.7163C179.344 33.8055 179.313 34.3931 179.269 34.4754C179.051 35.1257 178.611 35.5645 177.954 35.7917C177.775 35.8426 177.625 35.87 177.502 35.87H177.252C177.086 35.87 176.943 35.8544 176.828 35.823L176.84 35.8191Z" fill="#42C2B2"/>
<path d="M201.215 35.1058C199.408 34.8394 197.847 33.954 196.532 32.4574C195.708 31.4467 195.046 30.2714 194.543 28.9277C194.167 27.8229 193.98 26.6202 193.98 25.3195C193.98 25.0805 193.984 24.8376 193.996 24.5908C194.091 23.0003 194.444 21.4567 195.062 19.9602C196.282 17.2061 198.077 15.4 200.446 14.5421C200.842 14.4089 201.191 14.3188 201.488 14.2796C201.785 14.2404 202.17 14.2169 202.637 14.2169C204.674 14.2169 206.278 14.9299 207.459 16.352C208.232 17.3236 208.616 18.2168 208.616 19.0317C208.616 20.1992 208.152 20.8064 207.221 20.8573H207.158C206.928 20.8573 206.73 20.8025 206.564 20.6889C206.377 20.5635 206.183 20.3441 205.985 20.0229C205.589 19.3843 205.189 18.9533 204.781 18.7379C204.416 18.5616 204.016 18.4793 203.584 18.4832C203.152 18.4871 202.784 18.589 202.479 18.7849C201.342 19.5606 200.573 21.0023 200.177 23.1178C200.125 23.4077 200.09 23.6976 200.07 23.9836C200.05 24.2735 200.038 24.6692 200.038 25.1746V25.4057C200.038 26.1814 200.086 26.8004 200.181 27.2627C200.284 27.7798 200.49 28.3204 200.791 28.8885C201.429 30.1264 202.17 30.8512 203.014 31.0549C203.16 31.1059 203.291 31.1333 203.406 31.1333C203.521 31.1333 203.659 31.1059 203.83 31.0549C203.945 31.0353 204.064 31.0079 204.19 30.9687C204.317 30.9335 204.408 30.8982 204.472 30.8669C204.618 30.8042 204.808 30.6671 205.042 30.4555C205.276 30.244 205.478 30.0246 205.644 29.7974C205.716 29.6838 205.811 29.5349 205.918 29.3468C206.025 29.1588 206.116 28.9943 206.183 28.8532C206.251 28.7083 206.286 28.6142 206.286 28.5751V28.5594C206.286 28.5594 206.159 28.5437 205.941 28.5124C205.724 28.481 205.454 28.4497 205.145 28.4184C204.82 28.3753 204.535 28.34 204.285 28.3008C204.036 28.2617 203.877 28.2421 203.818 28.2303C203.556 28.148 203.339 27.9953 203.168 27.7719C202.998 27.5486 202.911 27.3057 202.911 27.0354C202.911 26.8787 202.946 26.7181 203.018 26.5457C203.089 26.3773 203.184 26.2402 203.299 26.1344C203.402 26.0325 203.529 25.9542 203.667 25.9032C203.81 25.8523 204.04 25.8131 204.365 25.7857C204.69 25.7583 205.173 25.7387 205.823 25.7152C206.354 25.7034 206.77 25.6995 207.067 25.6917C207.364 25.6878 207.598 25.6917 207.772 25.6995C207.946 25.7113 208.109 25.7309 208.267 25.7622C208.588 25.8249 208.826 25.8876 208.972 25.9463C209.119 26.009 209.262 26.1109 209.396 26.2558C209.658 26.4948 209.789 26.8356 209.789 27.2783C209.789 27.3606 209.785 27.4429 209.773 27.5251C209.689 28.5986 209.297 29.7739 208.596 31.0549C207.982 32.1166 207.118 33.0177 206.013 33.7581C204.907 34.4946 203.77 34.9373 202.602 35.0823C202.36 35.1019 202.194 35.1175 202.102 35.1214C202.007 35.1254 201.928 35.1293 201.865 35.1293H201.694C201.579 35.1175 201.425 35.1019 201.227 35.0823L201.215 35.1058Z" fill="#42C2B2"/>
<path d="M41.2809 78.1688C40.4014 77.7653 39.8427 77.2912 39.3475 76.4215C39.2088 76.1747 39.1137 75.9122 39.0028 75.5165C38.8919 75.1209 38.7611 74.4901 38.6977 73.9652C38.6343 73.4402 38.5432 72.8447 38.456 72.2767C38.3689 71.7047 38.357 71.6773 38.2342 70.9799C37.9212 69.1935 38.0123 68.9075 37.6399 66.5216C37.2675 64.1358 36.6256 61.2485 35.7619 57.895C34.8982 54.5415 33.4363 47.5133 26.8317 36.3793C24.6883 32.7673 23.3135 30.5577 21.8199 28.0348C21.0037 26.6558 21.0592 25.7782 21.4791 24.7518C21.8991 23.7254 22.8658 23.1142 23.1709 22.981C24.6408 22.3307 25.3103 22.4835 26.8753 23.2161C27.422 23.4707 28.4878 24.5285 29.3357 25.359C30.1796 26.1896 31.7802 27.8075 32.8024 29.1043C33.8245 30.4049 37.7469 35.8583 39.3514 38.7652C40.3063 40.4968 43.1192 45.9031 44.2484 50.4084C45.0566 53.6405 45.8252 57.9068 46.5344 64.0418C50.8886 64.1005 57.1762 65.2758 57.4535 65.1348C57.7309 64.9938 57.4377 65.2798 57.509 64.9663C57.5803 64.6529 57.509 64.3317 57.5288 63.6579C57.5486 62.9879 57.5922 61.0213 57.608 60.1516C57.6675 56.9979 58.7293 49.8521 59.1175 47.8306C59.5098 45.8091 59.8109 44.6926 59.8386 44.5437C60.2784 42.2166 61.253 39.4978 61.9028 38.2206C63.0557 35.9562 63.8441 35.8583 65.7142 35.3412C66.142 35.2236 66.2252 35.3764 66.5145 35.3764C66.8077 35.3764 66.978 35.5175 67.184 35.5723C67.3861 35.6272 67.3069 35.6193 67.5129 35.6977C67.7229 35.776 68.1309 35.9131 68.3449 36.0698C68.5588 36.2266 68.6777 36.2971 68.856 36.5204C70.2149 38.2206 70.3892 39.7563 70.1872 42.0247C70.1357 42.581 70.0564 43.1647 69.8861 44.1128C69.7157 45.0608 69.6602 45.4408 69.3195 47.0431C68.8045 49.4721 68.0675 53.0685 67.6198 56.0733C67.1721 59.0781 66.8948 63.8851 66.7839 66.7332C66.6729 69.5813 66.558 71.2581 66.4867 73.6792C66.463 74.5058 66.4471 74.9485 66.4471 75.5636C66.4471 76.1786 66.4907 77.162 66.5145 77.5145C66.6056 79.0267 66.7007 81.0052 66.6571 82.153C66.6135 83.3009 66.4431 83.6692 66.146 84.4331C65.8489 85.197 65.1595 85.6985 64.6999 85.863C64.2403 86.0276 63.8996 86.0119 63.7887 86.0119C62.7031 85.9806 62.1365 85.9649 61.3045 85.3498C60.8251 84.9972 60.6865 84.8679 60.2427 84.1863C59.799 83.5046 59.593 82.5605 59.379 81.3577C59.2681 80.7348 58.8957 78.6232 58.7689 77.7692C58.6421 76.9151 58.4638 75.7555 58.3529 75.0739C58.2419 74.3922 58.1984 73.9182 58.1389 73.452C58.0795 72.9858 58.0795 72.6645 58.0438 72.3707C58.0082 72.0729 58.0954 71.9828 57.9686 71.8183C57.8418 71.6538 57.9844 71.7243 57.6675 71.736C57.3505 71.7439 46.9861 70.4236 46.7919 70.4824C46.5978 70.5411 46.5186 70.5372 46.4076 70.6352C46.2967 70.7331 46.3165 70.6234 46.265 70.8193C46.2135 71.0152 46.2056 71.2424 46.166 71.5989C46.1263 71.9554 46.059 72.6253 46.0273 73.0876C45.9956 73.5499 45.9599 74.4157 45.9203 74.8192C45.8847 75.2188 45.8688 75.3912 45.8015 75.6654C45.7341 75.9397 45.6786 76.0924 45.5796 76.304C44.9853 77.6086 44.078 78.1962 42.6874 78.3529C42.3665 78.3882 42.1525 78.3529 41.895 78.3216C41.6414 78.2942 41.4909 78.2863 41.273 78.1845L41.2809 78.1688Z" fill="#F28500"/>
<path d="M76.8402 77.867C76.1944 77.5732 75.6992 76.868 75.3505 75.7476C75.089 74.9562 74.9068 74.1727 74.7998 73.397C74.6968 72.6213 74.6334 71.5635 74.6176 70.2198C74.5978 69.7222 74.5898 69.2208 74.5898 68.7232C74.5898 63.2621 75.7309 58.3102 78.013 53.8676C80.5209 48.8569 83.2903 45.5583 86.3211 43.9716C87.5929 43.3174 88.9756 42.9883 90.4772 42.9883C90.6674 42.9883 90.8496 42.9961 91.024 43.0157C92.9059 43.0157 94.5342 43.6974 95.909 45.0568C97.7196 46.8119 99.0627 49.3623 99.9343 52.704C100.56 55.0468 100.953 58.2083 101.111 62.1847C101.163 63.3718 101.186 64.3512 101.174 65.119C101.163 65.8869 101.127 66.8702 101.056 68.0768C101.004 69.0053 100.957 69.7144 100.913 70.1963C100.869 70.6781 100.818 71.0895 100.758 71.4225C100.699 71.7594 100.596 72.1669 100.457 72.6487C100.144 73.871 99.8353 74.7956 99.5302 75.4146C99.2252 76.0336 98.8448 76.5272 98.3932 76.8876C97.993 77.1971 97.6087 77.4165 97.2442 77.5458C96.8797 77.6751 96.4439 77.7377 95.9368 77.7377H95.8575C94.8314 77.7377 93.9954 77.4008 93.3496 76.7309C92.9336 76.3352 92.6206 75.8259 92.4225 75.2069C92.2205 74.588 92.0699 73.6046 91.9669 72.2609C91.9154 71.7437 91.8678 71.3872 91.8243 71.1874C91.7807 70.9916 91.7331 70.8897 91.6816 70.8897C91.646 70.8897 91.3488 70.9289 90.7942 71.0072C90.2355 71.0856 89.566 71.1757 88.7815 71.2775C86.7966 71.5361 85.085 71.7868 83.6468 72.0258C82.2086 72.2687 81.4281 72.4293 81.3093 72.5155C81.2895 72.5508 81.2736 72.6056 81.2578 72.684C81.238 72.7623 81.234 72.8368 81.234 72.9034C81.234 73.111 81.1865 73.4283 81.0914 73.8593C80.9963 74.2902 80.8774 74.7251 80.7388 75.1638C80.6001 75.6026 80.4773 75.9435 80.3743 76.1864C79.7126 77.4635 78.8925 78.0982 77.9179 78.0982C77.5851 78.0982 77.2285 78.0198 76.8482 77.867H76.8402ZM83.9717 66.4471C85.1048 66.3257 86.3489 66.2238 87.7078 66.1376C89.0668 66.0514 90.0255 66.0083 90.5802 66.0083H91.7054L91.7846 63.6068C91.8045 63.0544 91.8124 62.5138 91.8124 61.981C91.8124 59.8459 91.646 57.8126 91.3171 55.8851C90.9685 53.6795 90.5921 52.1477 90.1919 51.2858C90.1246 51.1135 90.0612 50.992 90.0097 50.9254C89.9582 50.8588 89.9107 50.8196 89.8671 50.8079C89.8235 50.7961 89.768 50.8118 89.6967 50.8471C89.2252 51.1213 88.6111 51.7873 87.8544 52.8372C87.0977 53.8871 86.3687 55.0859 85.6714 56.4297C84.8711 57.9654 84.2372 59.3993 83.7776 60.7313C83.314 62.0672 82.8822 63.646 82.486 65.4716L82.2245 66.6586L82.5652 66.6077C82.6682 66.5921 82.8505 66.5685 83.1159 66.545C83.3774 66.5176 83.6627 66.4902 83.9757 66.4549L83.9717 66.4471Z" fill="#F28500"/>
<path d="M112.834 79.0068C111.491 78.713 110.509 77.9804 109.883 76.809C109.657 76.429 109.471 75.3634 109.32 73.6044C109.174 71.8454 109.003 68.8327 108.809 64.5586C108.599 60.1473 108.496 56.594 108.496 53.8869C108.496 50.9761 108.619 49.0565 108.861 48.1241C109.368 46.3494 110.291 45.1036 111.63 44.3788C111.804 44.2926 111.971 44.2143 112.125 44.1477C112.284 44.0811 112.379 44.0458 112.414 44.0458C112.466 44.0458 112.569 44.0184 112.727 43.9675C112.882 43.9165 113.048 43.8382 113.223 43.7363C114.962 42.9959 116.701 42.5297 118.437 42.3417C120.168 42.1536 121.535 42.0557 122.525 42.0557C123.658 42.0557 124.72 42.134 125.715 42.2868C128.678 42.753 131.139 43.7285 133.096 45.2211C135.057 46.7098 136.202 48.1789 136.531 49.6245C136.86 51.0701 137.026 52.124 137.026 52.7782C137.026 54.5529 136.531 56.4726 135.536 58.5411C133.864 61.0053 131.911 63.0425 129.685 64.6526C127.454 66.2628 125.299 67.5242 123.219 68.437C121.135 69.3498 119.479 69.9963 118.242 70.3763C118.227 70.3959 118.195 70.5212 118.151 70.7641C118.108 71.007 118.064 71.2812 118.021 71.5907C117.977 71.9002 117.937 72.1666 117.902 72.3899C117.815 73.6122 117.723 74.5564 117.628 75.2185C117.533 75.8806 117.41 76.3859 117.264 76.7307C117.117 77.0754 116.903 77.3849 116.626 77.6592C116.468 77.8315 116.293 78 116.103 78.1645C115.913 78.3291 115.754 78.4427 115.632 78.5132C115.247 78.7365 114.859 78.8815 114.471 78.952C114.078 79.0186 113.742 79.0538 113.464 79.0538C113.254 79.0538 113.048 79.0382 112.838 79.0029L112.834 79.0068ZM121.38 61.3344C122.375 60.8172 123.147 60.3902 123.706 60.0572C124.265 59.7203 124.839 59.3285 125.429 58.8819C126.317 58.2277 127.22 57.452 128.131 56.5588C129.047 55.6616 129.704 54.8389 130.104 54.0907C130.505 53.3424 130.707 52.7195 130.707 52.218C130.707 51.8733 130.639 51.5363 130.497 51.2112C130.132 50.4198 129.11 49.7891 127.438 49.3229C126.202 49.0291 125.089 48.8645 124.094 48.8214C123.104 48.7783 122.422 48.7548 122.058 48.7548C120.889 48.7548 119.835 48.841 118.896 49.0134L118.635 49.0643V54.1298C118.635 55.5245 118.623 56.88 118.607 58.1963C118.587 59.5166 118.571 60.4411 118.555 60.9739L118.452 62.729L119.078 62.4705C119.269 62.3843 119.578 62.2315 120.006 62.0199C120.433 61.8045 120.889 61.5773 121.376 61.3344H121.38Z" fill="#F28500"/>
<path d="M146.95 79.0069C145.607 78.7131 144.624 77.9805 143.998 76.8092C143.772 76.4291 143.586 75.3635 143.435 73.6045C143.289 71.8455 143.118 68.8328 142.924 64.5587C142.714 60.1474 142.611 56.5941 142.611 53.8871C142.611 50.9762 142.734 49.0566 142.976 48.1242C143.483 46.3495 144.406 45.1037 145.745 44.3789C145.92 44.2928 146.086 44.2144 146.24 44.1478C146.399 44.0812 146.494 44.0459 146.53 44.0459C146.581 44.0459 146.684 44.0185 146.843 43.9676C146.997 43.9167 147.164 43.8383 147.338 43.7365C149.077 42.996 150.816 42.5298 152.552 42.3418C154.283 42.1537 155.65 42.0558 156.641 42.0558C157.774 42.0558 158.835 42.1341 159.83 42.2869C162.793 42.7531 165.254 43.7286 167.211 45.2212C169.172 46.7099 170.317 48.1791 170.646 49.6247C170.975 51.0703 171.141 52.1241 171.141 52.7784C171.141 54.5531 170.646 56.4727 169.652 58.5412C167.98 61.0054 166.026 63.0426 163.8 64.6527C161.569 66.2629 159.414 67.5244 157.334 68.4372C155.25 69.35 153.594 69.9964 152.358 70.3764C152.342 70.396 152.31 70.5213 152.267 70.7642C152.223 71.0071 152.179 71.2814 152.136 71.5909C152.092 71.9004 152.053 72.1668 152.017 72.3901C151.93 73.6124 151.839 74.5565 151.744 75.2186C151.648 75.8807 151.526 76.3861 151.379 76.7308C151.232 77.0756 151.019 77.385 150.741 77.6593C150.583 77.8317 150.408 78.0001 150.218 78.1647C150.028 78.3292 149.87 78.4428 149.747 78.5133C149.362 78.7366 148.974 78.8816 148.586 78.9521C148.194 79.0187 147.857 79.054 147.58 79.054C147.37 79.054 147.164 79.0383 146.954 79.003L146.95 79.0069ZM155.496 61.3345C156.49 60.8174 157.263 60.3903 157.821 60.0573C158.38 59.7204 158.954 59.3287 159.545 58.882C160.432 58.2278 161.335 57.4521 162.247 56.5589C163.162 55.6617 163.82 54.839 164.22 54.0908C164.62 53.3425 164.822 52.7196 164.822 52.2181C164.822 51.8734 164.755 51.5365 164.612 51.2113C164.247 50.4199 163.225 49.7892 161.553 49.323C160.317 49.0292 159.204 48.8646 158.209 48.8215C157.219 48.7785 156.538 48.7549 156.173 48.7549C155.004 48.7549 153.95 48.8411 153.011 49.0135L152.75 49.0644V54.1299C152.75 55.5246 152.738 56.8801 152.722 58.1965C152.702 59.5167 152.687 60.4413 152.671 60.9741L152.568 62.7292L153.194 62.4706C153.384 62.3844 153.693 62.2316 154.121 62.0201C154.549 61.8046 155.004 61.5774 155.492 61.3345H155.496Z" fill="#F28500"/>
<path d="M192.144 78.3056C190.262 78.1176 188.554 77.3262 187.021 75.9276C186.462 75.3752 186.185 74.8072 186.185 74.2234C186.185 74.1372 186.193 74.0511 186.213 73.9649C186.3 73.2754 186.736 72.723 187.52 72.3116C187.746 72.2098 187.972 72.1549 188.201 72.1549H188.621C188.95 72.1549 189.224 72.198 189.43 72.2842C189.533 72.3195 189.687 72.3939 189.885 72.5153C190.083 72.6368 190.297 72.7661 190.523 72.9032C190.749 73.0599 190.971 73.1892 191.189 73.291C191.407 73.3929 191.569 73.4556 191.672 73.4712C191.795 73.4869 191.914 73.4948 192.037 73.4948C192.805 73.4948 193.562 73.056 194.311 72.1784C195.182 71.1638 195.911 69.7142 196.506 67.8377C196.629 67.442 196.775 66.8779 196.949 66.1453C197.124 65.4127 197.282 64.7114 197.421 64.0415C197.56 63.3677 197.631 62.9641 197.631 62.827C197.631 62.8114 197.623 62.8035 197.607 62.8035C197.587 62.8035 197.548 62.8388 197.476 62.9054C197.389 62.9916 197.274 63.1287 197.136 63.3167C195.028 65.73 192.136 66.9876 188.459 67.0894C187.084 67.0894 185.856 66.8661 184.774 66.4156C183.693 65.969 182.631 65.252 181.585 64.2726C180.103 62.8584 178.927 60.9309 178.059 58.4863C177.29 56.1788 176.91 53.7224 176.91 51.1211C176.91 50.1731 176.961 49.2015 177.064 48.2025C177.223 46.7216 177.488 45.609 177.861 44.8686C178.237 44.1281 178.808 43.5875 179.572 43.2427C180.131 42.9999 180.67 42.8823 181.193 42.8823C182.029 42.8823 182.829 43.184 183.598 43.7873C184.224 44.2888 184.675 44.9783 184.945 45.8676C185.214 46.7569 185.42 48.2064 185.559 50.2201C185.892 54.7528 186.403 57.7302 187.1 59.1601C187.781 60.6253 188.772 61.3579 190.079 61.3579C190.357 61.3579 190.594 61.3305 190.785 61.2796C190.975 61.2286 191.236 61.115 191.569 60.9426C193.293 60.1003 194.616 58.1885 195.539 55.2072C195.852 54.122 196.205 52.4923 196.597 50.3219C196.989 48.1515 197.247 46.3769 197.369 45.0018C197.405 44.4494 197.5 44.0341 197.659 43.7481C197.813 43.4661 198.067 43.2349 198.415 43.0625C198.554 42.9959 198.689 42.9372 198.819 42.8941C198.95 42.851 199.117 42.8236 199.315 42.8157C199.517 42.8079 199.79 42.804 200.139 42.804C200.329 42.7883 200.495 42.7766 200.634 42.7766C200.773 42.7766 200.888 42.7844 200.975 42.804C201.165 42.804 201.323 42.8236 201.446 42.8667C201.569 42.9097 201.708 42.9842 201.862 43.086C203.308 43.897 204.378 45.6599 205.075 48.3827C205.614 50.2945 205.884 52.5942 205.884 55.2817C205.884 55.7283 205.876 56.1866 205.86 56.6528C205.773 62.3882 204.727 67.0933 202.726 70.7602C202.167 71.7945 201.533 72.7778 200.82 73.7181C200.107 74.6583 199.434 75.3948 198.808 75.9276C196.854 77.5299 194.838 78.3291 192.746 78.3291C192.556 78.3291 192.354 78.3213 192.144 78.3017V78.3056Z" fill="#F28500"/>
<path d="M0.801542 19.2825C1.60978 20.2933 2.71912 21.0807 3.72545 21.8917C4.71593 22.6909 5.63907 23.5802 6.895 23.9524C9.3197 24.6771 11.7127 23.4431 11.9306 20.8614C12.0455 19.5254 10.4172 18.2757 9.13745 18.7576H9.37517C9.95361 18.9887 10.5281 19.2238 11.1065 19.4628C10.8847 19.1885 10.6153 18.93 10.3062 18.7537C9.56931 18.499 9.36329 18.405 9.6842 18.4794C9.81098 18.5147 9.78721 18.4912 9.61685 18.4089C9.07406 18.0798 10.3657 18.9535 9.28801 18.1856C8.86804 17.8879 8.456 17.5901 8.02811 17.3041C6.57408 16.3208 5.16759 15.3257 3.52735 14.6715C2.3982 14.221 0.944172 14.9731 0.373653 15.9408C-0.299876 17.0808 0.0289646 18.3149 0.809466 19.2865L0.801542 19.2825Z" fill="#EE9F00"/>
<path d="M20.9598 0.544465C20.6468 0.317242 20.3061 0.176207 19.9297 0.0861014C18.3489 -0.29391 16.9345 0.579724 16.4115 2.06059C15.7617 3.89405 16.459 6.02916 16.8077 7.86261C17.1682 9.75092 17.5961 12.2504 19.4978 13.1788C20.3972 13.6176 21.7522 13.6568 22.4614 12.7988C23.9907 10.9458 23.5033 8.70491 22.9645 6.51495C22.5208 4.70891 22.2514 2.82061 21.5541 1.18696L19.5731 4.59922L19.8504 4.58747C22.1484 4.47386 22.6793 1.80203 20.9598 0.540547V0.544465Z" fill="#42C2B2"/>
<path d="M33.1774 15.7921C35.8438 14.5463 38.1853 11.9215 39.3105 9.26144C40.1821 7.20076 37.1908 4.97162 35.4 6.28795C33.0625 8.00387 31.0617 10.7384 30.1109 13.4611C29.4611 15.3181 31.6679 16.4973 33.1814 15.7921H33.1774Z" fill="#1AB3D3"/>
<path d="M81.4237 30.8514C81.0909 30.726 80.7621 30.6045 80.4253 30.5027C79.7201 30.2872 79.106 30.7613 78.8604 31.3802L78.7534 31.6545L79.6765 30.7417L79.1496 30.8866C77.7827 31.2666 77.0696 32.7592 77.6163 34.0442C78.1829 35.3723 79.7082 35.8111 80.9721 35.1647C82.6836 34.2871 84.2684 33.0883 85.7145 31.8151C86.9308 30.7417 86.9031 28.5478 85.7145 27.4704C84.4784 26.3461 82.545 26.2521 81.3207 27.4704C79.9618 28.822 78.7098 30.3264 77.7352 31.964C78.9753 31.8073 80.2154 31.6466 81.4515 31.4899L80.9602 31.0786L81.3485 32.0031L81.3643 31.7172C81.1543 32.0776 80.9444 32.4419 80.7344 32.8023C81.0394 32.6691 81.3366 32.5242 81.6298 32.3675C82.3231 32.0031 82.0537 31.0903 81.4277 30.8514H81.4237Z" fill="#42C2B2"/>
<path d="M70.0268 30.3184C72.4436 30.0324 73.3707 27.9757 73.6084 25.8014C73.7193 24.7867 73.6163 23.7603 73.125 22.8436C72.5823 22.0679 72.4436 21.9073 72.7011 22.3695L72.2019 21.731C71.5838 21.1198 70.6924 20.7555 69.8168 20.8182C70.4943 21.0963 71.1758 21.3745 71.8533 21.6526C71.7027 21.5116 71.5442 21.3823 71.3778 21.2609C70.4349 20.5283 69.2622 20.2109 68.1528 20.8495C67.087 21.4646 66.6988 22.6673 66.9286 23.8191C66.9761 24.0189 67.0118 24.2226 67.0316 24.4263C67.2772 23.5017 67.5268 22.5772 67.7725 21.6526C67.3644 22.0483 67.0276 22.5733 66.8731 23.1178C66.7107 23.9993 66.6869 24.2265 66.8057 23.8034C66.9286 23.3568 66.9048 23.6075 66.7305 24.5517C66.7661 25.3509 67.087 26.0404 67.2851 26.7965C67.3683 27.1138 67.2574 26.5027 67.3168 27.055C67.3604 27.4468 67.4317 27.9678 67.5585 28.3674C67.8557 29.3273 68.8818 30.4477 70.0189 30.3145L70.0268 30.3184Z" fill="#EE9F00"/>
<path d="M213.586 42.4668V43.2347H212.089V47.0974H211.162V43.2347H209.664V42.4668H213.586ZM218.646 47.0974L218.475 44.3747C218.46 44.0182 218.46 43.5755 218.44 43.0819H218.388C218.269 43.4893 218.131 44.0339 217.992 44.4609L217.148 47.0308H216.185L215.342 44.3943C215.254 44.0378 215.12 43.4932 215.017 43.0819H214.965C214.965 43.5089 214.949 43.9516 214.929 44.3747L214.759 47.0974H213.864L214.208 42.4668H215.603L216.411 44.7312C216.514 45.0877 216.601 45.4285 216.72 45.9065H216.736C216.855 45.4795 216.958 45.0916 217.061 44.7508L217.869 42.4707H219.212L219.573 47.1014H218.642L218.646 47.0974Z" fill="#F28500"/>
<path d="M98.1195 35.1841C96.7289 35 95.469 34.4006 94.3319 33.3898C93.8842 32.9981 93.6584 32.622 93.6584 32.2616C93.6584 32.1284 93.6901 31.9952 93.7535 31.858C93.8169 31.7131 93.9238 31.576 94.0744 31.4467C94.2249 31.3174 94.3795 31.2273 94.5379 31.1764C94.7162 31.1372 94.8866 31.1137 95.053 31.1137C95.1798 31.1137 95.3026 31.1254 95.4294 31.145C95.7226 31.1881 95.9563 31.2861 96.1346 31.4389C96.2376 31.5329 96.4317 31.6504 96.713 31.7954C96.9943 31.9403 97.2717 32.0657 97.545 32.1675C97.8897 32.2929 98.2463 32.3517 98.6108 32.3517C98.9753 32.3517 99.324 32.2968 99.6924 32.1832C100.445 31.9677 101.111 31.6191 101.689 31.1372C102.268 30.6553 102.6 30.2557 102.684 29.9384C102.767 29.6211 102.81 29.4134 102.81 29.3194C102.81 28.9081 102.577 28.5359 102.105 28.2029C101.523 27.7994 100.449 27.5643 98.8961 27.4899C97.652 27.4585 96.4317 27.2587 95.2234 26.8866C94.0189 26.5144 92.9967 25.915 92.1647 25.0844C91.3288 24.2539 90.8494 23.1374 90.7226 21.7309V21.4371C90.7226 20.1756 91.095 19.0513 91.8359 18.064C92.6481 16.9906 93.7139 16.117 95.0292 15.4471C96.3446 14.7771 97.45 14.3971 98.3454 14.3109C99.2408 14.2247 99.8469 14.1777 100.164 14.1777C101.249 14.1777 102.256 14.3658 103.187 14.734C103.884 15.0318 104.542 15.4706 105.152 16.0504C105.762 16.6302 106.198 17.2178 106.459 17.8172C106.511 17.9622 106.574 18.2051 106.654 18.5459C106.733 18.8867 106.8 19.2315 106.856 19.5762C106.911 19.921 106.943 20.1874 106.943 20.3754C106.931 21.4058 106.507 22.0169 105.659 22.2011C105.544 22.2206 105.429 22.2324 105.314 22.2324C105.104 22.2324 104.902 22.1971 104.704 22.1227C104.403 22.0091 104.161 21.8289 103.983 21.5821C103.94 21.5194 103.908 21.4528 103.88 21.3823C103.852 21.3118 103.833 21.2138 103.817 21.0885C103.801 20.9631 103.789 20.7946 103.777 20.5792C103.65 19.5371 103.294 18.8789 102.707 18.6047C102.117 18.3304 101.646 18.1933 101.289 18.1933C100.778 18.1933 100.251 18.3579 99.7083 18.6909C99.0308 19.1531 98.5633 19.6389 98.3057 20.1443C98.0522 20.6497 97.9214 21.0649 97.9214 21.3823C97.9214 21.5782 97.9571 21.7662 98.0324 21.9386C98.1473 22.1854 98.4325 22.393 98.8842 22.5654C99.3398 22.7339 100.041 22.9023 100.988 23.0669C102.01 23.2432 102.803 23.4116 103.369 23.5683C103.932 23.7289 104.522 23.964 105.136 24.2735C106.42 24.9121 107.232 25.6055 107.569 26.3498C107.906 27.0942 108.08 27.7484 108.08 28.3165C108.08 28.7396 108.012 29.1666 107.878 29.6015C107.573 30.6436 106.97 31.6308 106.063 32.5593C105.093 33.5191 103.959 34.2047 102.66 34.62C101.36 35.0352 100.176 35.239 99.114 35.239C98.7931 35.239 98.4642 35.2233 98.1274 35.192L98.1195 35.1841Z" fill="#42C2B2"/>
<path d="M117.564 35.3253C115.381 35.1804 113.484 34.2793 111.867 32.6143C110.667 31.3646 109.894 29.9268 109.549 28.2932C109.454 27.7995 109.403 27.2863 109.391 26.7614C109.379 26.2364 109.375 25.8721 109.375 25.6762C109.375 25.0885 109.395 24.5557 109.439 24.0817C109.878 20.1406 111.455 17.312 114.169 15.5961C115.746 14.554 117.343 14.033 118.959 14.033C119.074 14.033 119.193 14.0369 119.32 14.0486C120.54 14.1191 121.598 14.4521 122.497 15.0398C123.392 15.6274 123.999 16.3013 124.312 17.0613C124.625 17.8213 124.779 18.5187 124.779 19.1572C124.779 19.6117 124.724 20.0857 124.609 20.5833C124.086 22.4089 123.072 23.8662 121.57 24.9475C120.068 26.0327 118.373 26.6438 116.483 26.7888L115.92 26.8358L115.952 27.0826C116.118 28.4773 116.499 29.539 117.093 30.2716C117.386 30.6633 117.671 30.9532 117.953 31.1374C118.234 31.3215 118.575 31.4586 118.971 31.5409C119.181 31.5918 119.367 31.6192 119.534 31.6192C119.629 31.6192 119.712 31.6153 119.783 31.6036C120.001 31.5722 120.286 31.4743 120.627 31.3097C120.857 31.1961 121.043 31.0904 121.19 30.9846C121.336 30.8827 121.491 30.7378 121.657 30.5497C122.034 30.1697 122.319 29.8798 122.517 29.6839C122.715 29.488 122.869 29.3509 122.976 29.2726C123.087 29.1942 123.206 29.1355 123.329 29.0963C123.539 29.0258 123.745 28.9866 123.955 28.9866C124.133 28.9866 124.304 29.014 124.47 29.0649C124.835 29.1785 125.124 29.3901 125.33 29.6996C125.465 29.9386 125.532 30.1893 125.532 30.4596C125.532 30.7299 125.469 30.9846 125.346 31.2627C125.167 31.5918 124.791 32.0306 124.217 32.5712C123.642 33.1119 123.032 33.6016 122.386 34.0364C121.487 34.6241 120.548 35.0276 119.569 35.2431C119.339 35.2861 119.102 35.3097 118.856 35.3214C118.61 35.3332 118.424 35.3371 118.301 35.3371C118.06 35.3371 117.81 35.3332 117.549 35.3214L117.564 35.3253ZM117.457 23.6978C118.385 23.4079 119.074 23.0984 119.522 22.7693C120.358 22.1111 120.873 21.5117 121.071 20.975C121.269 20.4383 121.368 20.0152 121.368 19.7057C121.368 19.4667 121.32 19.2473 121.225 19.0397C121.039 18.6283 120.71 18.4207 120.239 18.4207L120.068 18.4364C119.506 18.4873 118.82 18.93 118.016 19.7684C117.065 20.7478 116.451 21.9113 116.17 23.2512C116.106 23.5097 116.071 23.6782 116.063 23.7526C116.051 23.831 116.047 23.878 116.047 23.9015C116.047 23.9524 116.063 23.9838 116.095 23.9955C116.114 24.0073 116.146 24.0112 116.19 24.0112C116.233 24.0112 116.277 24.0073 116.332 23.9955C116.415 23.9838 116.566 23.9524 116.78 23.8937C116.994 23.8388 117.22 23.7722 117.461 23.7017L117.457 23.6978Z" fill="#42C2B2"/>
<path d="M129.307 35.819C128.943 35.7054 128.638 35.5213 128.4 35.2627C128.253 35.1177 128.142 34.9806 128.071 34.8435C128 34.7103 127.944 34.5418 127.913 34.342C127.881 34.1422 127.849 33.8602 127.817 33.4998C127.806 33.2608 127.79 33.0022 127.762 32.7241C127.734 32.4459 127.714 32.2069 127.691 32.011C127.679 31.8152 127.663 31.5684 127.635 31.2745C127.611 30.9807 127.588 30.7026 127.564 30.4479C127.552 30.1894 127.536 29.9465 127.516 29.7114C127.497 29.4763 127.481 29.3118 127.469 29.2099C127.457 29.1081 127.441 28.9279 127.421 28.6771C127.401 28.4264 127.378 28.16 127.358 27.8779C127.338 27.588 127.318 27.2903 127.294 26.9808C127.275 26.6713 127.255 26.4206 127.247 26.2208C127.227 26.0249 127.207 25.782 127.184 25.4921C127.164 25.2022 127.14 24.9358 127.12 24.689C127.108 24.5871 127.1 24.4657 127.088 24.3325C127.069 24.0661 127.045 23.7723 127.017 23.4588C126.989 23.1454 126.97 22.8477 126.946 22.5695C126.831 21.0848 126.771 19.9447 126.771 19.1494C126.771 18.3542 126.835 17.696 126.958 17.1985C127.176 16.3092 127.651 15.7019 128.384 15.3728C128.404 15.3611 128.432 15.3533 128.463 15.3415C128.546 15.3023 128.63 15.2631 128.705 15.224C128.784 15.1887 128.84 15.1613 128.871 15.1378C129.038 15.0555 129.24 14.985 129.474 14.9301C129.707 14.8753 129.921 14.844 130.107 14.844C131.027 14.844 132.021 15.3689 133.099 16.4228C133.38 16.7127 133.689 17.0457 134.03 17.4218C134.37 17.7979 134.664 18.1465 134.913 18.4678C134.933 18.4991 134.981 18.554 135.056 18.6362C135.107 18.7068 135.163 18.7812 135.226 18.8517C135.955 19.7606 136.843 20.9359 137.889 22.3815C138.158 22.7615 138.427 23.1337 138.685 23.498C138.943 23.8624 139.145 24.1327 139.279 24.3168C139.406 24.4813 139.537 24.6616 139.679 24.8574C139.822 25.0533 139.933 25.2139 140.016 25.3393C140.099 25.4647 140.179 25.5665 140.254 25.6488C140.325 25.7311 140.369 25.7742 140.381 25.7742C140.401 25.7742 140.412 25.7272 140.412 25.6331C140.412 25.5391 140.408 25.4216 140.397 25.2766C140.365 24.8849 140.333 24.2698 140.294 23.4275C140.254 22.5852 140.226 21.7077 140.198 20.7949C140.171 19.882 140.159 19.1573 140.159 18.6206V18.3267C140.159 17.0653 140.222 16.1407 140.349 15.5413C140.484 14.9106 140.741 14.4365 141.118 14.1153C141.336 13.9194 141.553 13.7744 141.767 13.6804C141.981 13.5864 142.239 13.5316 142.544 13.512H142.714C142.829 13.512 142.928 13.5159 143.011 13.5276C143.126 13.5394 143.257 13.5746 143.404 13.6373C144.216 13.9664 144.731 14.6442 144.937 15.6667C145 16.1015 145.032 16.8028 145.032 17.7704V18.5618C145.02 19.9565 144.965 21.3747 144.862 22.8203C144.842 23.0788 144.822 23.3413 144.806 23.6077C144.79 23.878 144.778 24.0935 144.767 24.258C144.755 24.4108 144.743 24.6224 144.727 24.8927C144.711 25.1591 144.695 25.4255 144.672 25.6841C144.588 26.8515 144.505 28.779 144.422 31.4743C144.41 31.9484 144.402 32.3166 144.39 32.5752C144.378 32.8338 144.366 33.0257 144.343 33.1472C144.323 33.2725 144.295 33.3587 144.263 33.4096C143.97 34.009 143.439 34.3695 142.667 34.4948C142.385 34.5379 142.108 34.5575 141.839 34.5575C141.569 34.5575 141.332 34.5379 141.134 34.4948C140.353 34.2794 139.739 33.8171 139.303 33.1158C139.24 33.0218 139.16 32.9082 139.061 32.775C138.962 32.6418 138.859 32.5125 138.756 32.3871C138.289 31.8504 137.738 31.204 137.104 30.444C136.474 29.684 135.88 28.9553 135.325 28.254C134.489 27.1924 133.792 26.307 133.229 25.6057C132.936 25.257 132.714 24.9828 132.556 24.7948C132.397 24.6028 132.29 24.4657 132.227 24.3756C132.164 24.2894 132.116 24.2267 132.084 24.1954C132.065 24.164 132.045 24.1444 132.029 24.1327C132.013 24.1209 132.001 24.117 131.989 24.117L131.973 24.1327C131.954 24.164 131.938 24.4892 131.926 25.1082C131.914 25.7272 131.906 26.4911 131.894 27.4C131.874 29.8563 131.851 31.631 131.831 32.7162C131.811 33.8053 131.779 34.393 131.736 34.4752C131.518 35.1256 131.078 35.5643 130.42 35.7916C130.242 35.8425 130.092 35.8699 129.969 35.8699H129.719C129.553 35.8699 129.41 35.8543 129.295 35.8229L129.307 35.819Z" fill="#42C2B2"/>
<path d="M149.973 35.2157C149.066 34.9571 148.448 34.3969 148.127 33.5272C147.973 33.1785 147.834 31.9484 147.719 29.8407C147.604 28.0542 147.525 26.5498 147.485 25.3197C147.442 24.0896 147.422 22.7537 147.422 21.312C147.422 19.4863 147.461 18.2131 147.549 17.4962C147.636 16.7793 147.806 16.1838 148.068 15.7097C148.452 14.9967 148.892 14.5501 149.383 14.3621C149.874 14.174 150.27 14.0839 150.576 14.0839C150.94 14.0839 151.316 14.1701 151.701 14.3464L151.982 14.5031L152.592 14.3777C153 14.2955 153.638 14.2445 154.502 14.221C154.854 14.2093 155.148 14.2054 155.377 14.2054H155.69C155.96 14.2171 156.261 14.2524 156.582 14.3151C157.073 14.3973 157.58 14.5227 158.107 14.6951C158.634 14.8635 159.094 15.0516 159.478 15.2592C161.19 16.1877 162.477 17.4766 163.345 19.1298C163.971 20.3796 164.284 21.7351 164.284 23.2003V23.4784C164.24 25.0376 163.856 26.5498 163.127 28.015C162.188 29.8407 160.77 31.396 158.868 32.6731C158.388 32.9826 157.83 33.2921 157.192 33.6016C156.554 33.9111 155.98 34.1501 155.469 34.3146C155.001 34.4674 154.415 34.6241 153.717 34.7769C153.016 34.9336 152.454 35.0355 152.026 35.0864C151.911 35.0981 151.792 35.1138 151.673 35.1412C151.554 35.1687 151.463 35.1922 151.4 35.2117C151.273 35.2627 151.099 35.2901 150.869 35.2901H150.762C150.48 35.2901 150.219 35.2627 149.977 35.2117L149.973 35.2157ZM155.029 29.5664C155.885 28.8142 156.665 27.9171 157.37 26.8789C158.075 25.8408 158.595 24.8378 158.927 23.8663C159.042 23.4863 159.11 23.1415 159.121 22.8359C159.137 22.5304 159.145 22.3345 159.145 22.2404C159.145 21.8565 159.114 21.5274 159.05 21.2493C158.832 20.3835 158.341 19.7175 157.576 19.2513C156.617 18.6754 155.524 18.3855 154.304 18.3855H153.646V21.4648C153.646 22.6009 153.634 23.5724 153.614 24.3834C153.595 25.1943 153.559 26.0484 153.503 26.9455C153.464 27.6272 153.42 28.2658 153.389 28.8652C153.353 29.4646 153.329 29.8759 153.317 30.1031L153.27 30.8632L153.911 30.4126C154.098 30.2873 154.296 30.1462 154.506 29.9856C154.716 29.825 154.886 29.684 155.025 29.5586L155.029 29.5664Z" fill="#42C2B2"/>
<path d="M168.416 35.1528C167.517 34.8747 166.95 34.2949 166.708 33.4173C166.689 33.3155 166.669 33.1352 166.653 32.8767C166.637 32.6181 166.629 32.3282 166.629 32.0109C166.629 31.721 166.625 31.4624 166.613 31.2352C166.601 31.008 166.597 30.8787 166.597 30.8473C166.578 30.8356 166.546 30.4595 166.502 29.7112C166.459 28.963 166.391 27.7015 166.3 25.9268L166.253 25.1981C166.213 24.4655 166.17 23.729 166.126 22.9846C166.074 22.0993 166.047 21.1277 166.047 20.0738V19.1454C166.059 18.5264 166.067 18.0523 166.078 17.7272C166.09 17.402 166.102 17.1552 166.126 16.9907C166.146 16.8261 166.177 16.6772 166.221 16.5401C166.689 14.9417 167.663 14.1386 169.133 14.1386H169.244C169.462 14.1504 169.64 14.17 169.775 14.2013C169.91 14.2326 170.06 14.2875 170.227 14.3698C171.094 14.7811 171.657 15.4745 171.918 16.4461C172.065 16.9711 172.136 17.9152 172.136 19.2786C172.136 20.4225 172.085 21.8681 171.978 23.6154C171.958 24.1012 171.926 24.7123 171.891 25.4488C171.855 26.1853 171.819 26.8749 171.788 27.5173C171.756 28.1481 171.724 28.7396 171.692 29.292C171.661 29.8444 171.641 30.2284 171.629 30.4438C171.609 30.6515 171.593 30.91 171.582 31.2274C171.57 31.5447 171.566 31.8346 171.566 32.101C171.566 32.7709 171.518 33.2724 171.415 33.6014C171.316 33.9305 171.13 34.2322 170.86 34.4986C170.349 34.9844 169.759 35.2273 169.093 35.2273C168.876 35.2273 168.646 35.1998 168.404 35.1489L168.416 35.1528Z" fill="#42C2B2"/>
<path d="M176.838 35.819C176.474 35.7054 176.169 35.5213 175.931 35.2627C175.784 35.1177 175.674 34.9806 175.602 34.8435C175.531 34.7103 175.475 34.5418 175.444 34.342C175.412 34.1422 175.38 33.8602 175.349 33.4998C175.337 33.2608 175.321 33.0022 175.293 32.7241C175.265 32.4459 175.246 32.2069 175.222 32.011C175.21 31.8152 175.194 31.5684 175.166 31.2745C175.143 30.9807 175.119 30.7026 175.095 30.4479C175.083 30.1894 175.067 29.9465 175.048 29.7114C175.028 29.4763 175.012 29.3118 175 29.2099C174.988 29.1081 174.972 28.9279 174.952 28.6771C174.933 28.4264 174.909 28.16 174.889 27.8779C174.869 27.588 174.849 27.2903 174.826 26.9808C174.806 26.6713 174.786 26.4206 174.778 26.2208C174.758 26.0249 174.739 25.782 174.715 25.4921C174.695 25.2022 174.671 24.9358 174.651 24.689C174.639 24.5871 174.632 24.4657 174.62 24.3325C174.6 24.0661 174.576 23.7723 174.548 23.4588C174.521 23.1454 174.501 22.8477 174.477 22.5695C174.362 21.0848 174.303 19.9447 174.303 19.1494C174.303 18.3542 174.366 17.696 174.489 17.1985C174.707 16.3092 175.182 15.7019 175.915 15.3728C175.935 15.3611 175.963 15.3533 175.994 15.3415C176.078 15.3023 176.161 15.2631 176.236 15.224C176.315 15.1887 176.371 15.1613 176.403 15.1378C176.569 15.0555 176.771 14.985 177.005 14.9301C177.239 14.8753 177.452 14.844 177.639 14.844C178.558 14.844 179.552 15.3689 180.63 16.4228C180.911 16.7127 181.22 17.0457 181.561 17.4218C181.902 17.7979 182.195 18.1465 182.445 18.4678C182.464 18.4991 182.512 18.554 182.587 18.6362C182.639 18.7068 182.694 18.7812 182.758 18.8517C183.487 19.7606 184.374 20.9359 185.42 22.3815C185.689 22.7615 185.959 23.1337 186.216 23.498C186.474 23.8624 186.676 24.1327 186.811 24.3168C186.937 24.4813 187.068 24.6616 187.211 24.8574C187.353 25.0533 187.464 25.2139 187.547 25.3393C187.631 25.4647 187.71 25.5665 187.785 25.6488C187.857 25.7311 187.9 25.7742 187.912 25.7742C187.932 25.7742 187.944 25.7272 187.944 25.6331C187.944 25.5391 187.94 25.4216 187.928 25.2766C187.896 24.8849 187.864 24.2698 187.825 23.4275C187.785 22.5852 187.757 21.7077 187.73 20.7949C187.702 19.882 187.69 19.1573 187.69 18.6206V18.3267C187.69 17.0653 187.754 16.1407 187.88 15.5413C188.015 14.9106 188.273 14.4365 188.649 14.1153C188.867 13.9194 189.085 13.7744 189.299 13.6804C189.513 13.5864 189.77 13.5316 190.075 13.512H190.246C190.36 13.512 190.46 13.5159 190.543 13.5276C190.658 13.5394 190.788 13.5746 190.935 13.6373C191.747 13.9664 192.262 14.6442 192.468 15.6667C192.532 16.1015 192.563 16.8028 192.563 17.7704V18.5618C192.551 19.9565 192.496 21.3747 192.393 22.8203C192.373 23.0788 192.353 23.3413 192.337 23.6077C192.322 23.878 192.31 24.0935 192.298 24.258C192.286 24.4108 192.274 24.6224 192.258 24.8927C192.242 25.1591 192.227 25.4255 192.203 25.6841C192.12 26.8515 192.036 28.779 191.953 31.4743C191.941 31.9484 191.933 32.3166 191.921 32.5752C191.91 32.8338 191.898 33.0257 191.874 33.1472C191.854 33.2725 191.826 33.3587 191.795 33.4096C191.501 34.009 190.971 34.3695 190.198 34.4948C189.917 34.5379 189.639 34.5575 189.37 34.5575C189.101 34.5575 188.863 34.5379 188.665 34.4948C187.884 34.2794 187.27 33.8171 186.834 33.1158C186.771 33.0218 186.692 32.9082 186.593 32.775C186.494 32.6418 186.391 32.5125 186.288 32.3871C185.82 31.8504 185.269 31.204 184.635 30.444C184.006 29.684 183.411 28.9553 182.857 28.254C182.021 27.1924 181.323 26.307 180.761 25.6057C180.468 25.257 180.246 24.9828 180.087 24.7948C179.929 24.6028 179.822 24.4657 179.758 24.3756C179.695 24.2894 179.647 24.2267 179.616 24.1954C179.596 24.164 179.576 24.1444 179.56 24.1327C179.544 24.1209 179.532 24.117 179.521 24.117L179.505 24.1327C179.485 24.164 179.469 24.4892 179.457 25.1082C179.445 25.7272 179.437 26.4911 179.426 27.4C179.406 29.8563 179.382 31.631 179.362 32.7162C179.342 33.8053 179.311 34.393 179.267 34.4752C179.049 35.1256 178.609 35.5643 177.952 35.7916C177.773 35.8425 177.623 35.8699 177.5 35.8699H177.25C177.084 35.8699 176.941 35.8543 176.826 35.8229L176.838 35.819Z" fill="#42C2B2"/>
<path d="M201.211 35.1056C199.404 34.8392 197.843 33.9539 196.528 32.4573C195.704 31.4466 195.042 30.2713 194.539 28.9275C194.163 27.8228 193.977 26.62 193.977 25.3194C193.977 25.0804 193.981 24.8375 193.992 24.5907C194.088 23.0001 194.44 21.4566 195.058 19.9601C196.278 17.206 198.073 15.3999 200.442 14.542C200.839 14.4088 201.187 14.3187 201.484 14.2795C201.782 14.2403 202.166 14.2168 202.633 14.2168C204.67 14.2168 206.274 14.9298 207.455 16.3519C208.228 17.3235 208.612 18.2167 208.612 19.0316C208.612 20.199 208.148 20.8063 207.217 20.8572H207.154C206.924 20.8572 206.726 20.8023 206.56 20.6887C206.373 20.5634 206.179 20.344 205.981 20.0227C205.585 19.3842 205.185 18.9532 204.777 18.7378C204.412 18.5615 204.012 18.4792 203.58 18.4831C203.148 18.487 202.78 18.5889 202.475 18.7848C201.338 19.5605 200.569 21.0021 200.173 23.1177C200.122 23.4076 200.086 23.6975 200.066 23.9835C200.046 24.2734 200.034 24.6691 200.034 25.1744V25.4056C200.034 26.1813 200.082 26.8003 200.177 27.2625C200.28 27.7797 200.486 28.3203 200.787 28.8884C201.425 30.1263 202.166 30.8511 203.01 31.0548C203.156 31.1057 203.287 31.1332 203.402 31.1332C203.517 31.1332 203.656 31.1057 203.826 31.0548C203.941 31.0352 204.06 31.0078 204.186 30.9686C204.313 30.9334 204.404 30.8981 204.468 30.8668C204.614 30.8041 204.805 30.667 205.038 30.4554C205.272 30.2439 205.474 30.0245 205.641 29.7972C205.712 29.6836 205.807 29.5348 205.914 29.3467C206.021 29.1587 206.112 28.9941 206.179 28.8531C206.247 28.7081 206.282 28.6141 206.282 28.5749V28.5593C206.282 28.5593 206.156 28.5436 205.938 28.5123C205.72 28.4809 205.45 28.4496 205.141 28.4182C204.816 28.3751 204.531 28.3399 204.282 28.3007C204.032 28.2615 203.873 28.2419 203.814 28.2302C203.553 28.1479 203.335 27.9951 203.164 27.7718C202.994 27.5485 202.907 27.3056 202.907 27.0353C202.907 26.8786 202.942 26.718 203.014 26.5456C203.085 26.3771 203.18 26.24 203.295 26.1343C203.398 26.0324 203.525 25.954 203.664 25.9031C203.806 25.8522 204.036 25.813 204.361 25.7856C204.686 25.7582 205.169 25.7386 205.819 25.7151C206.35 25.7033 206.766 25.6994 207.063 25.6916C207.36 25.6876 207.594 25.6916 207.768 25.6994C207.942 25.7111 208.105 25.7307 208.263 25.7621C208.584 25.8248 208.822 25.8874 208.969 25.9462C209.115 26.0089 209.258 26.1107 209.392 26.2557C209.654 26.4947 209.785 26.8355 209.785 27.2782C209.785 27.3605 209.781 27.4427 209.769 27.525C209.686 28.5984 209.293 29.7737 208.592 31.0548C207.978 32.1165 207.114 33.0175 206.009 33.758C204.904 34.4945 203.767 34.9372 202.598 35.0821C202.356 35.1017 202.19 35.1174 202.099 35.1213C202.003 35.1252 201.924 35.1292 201.861 35.1292H201.69C201.576 35.1174 201.421 35.1017 201.223 35.0821L201.211 35.1056Z" fill="#42C2B2"/>
<path d="M41.2789 78.1683C40.3994 77.7648 39.8408 77.2907 39.3455 76.421C39.2069 76.1742 39.1118 75.9117 39.0008 75.5161C38.8899 75.1204 38.7592 74.4896 38.6958 73.9647C38.6324 73.4397 38.5412 72.8442 38.4541 72.2762C38.3669 71.7042 38.355 71.6768 38.2322 70.9794C37.9192 69.193 38.0103 68.907 37.6379 66.5212C37.2655 64.1353 36.6237 61.248 35.76 57.8945C34.8963 54.541 33.4343 47.5128 26.8298 36.3788C24.6864 32.7668 23.3116 30.5572 21.8179 28.0343C21.0018 26.6553 21.0572 25.7777 21.4772 24.7513C21.8972 23.7249 22.8639 23.1137 23.1689 22.9805C24.6388 22.3302 25.3084 22.483 26.8733 23.2156C27.4201 23.4702 28.4859 24.528 29.3337 25.3585C30.1776 26.1891 31.7782 27.8071 32.8004 29.1038C33.8226 30.4045 37.7449 35.8578 39.3495 38.7647C40.3043 40.4963 43.1173 45.9026 44.2464 50.4079C45.0547 53.64 45.8233 57.9063 46.5325 64.0413C50.8866 64.1001 57.1742 65.2753 57.4516 65.1343C57.7289 64.9933 57.4357 65.2793 57.507 64.9659C57.5783 64.6524 57.507 64.3312 57.5268 63.6574C57.5466 62.9874 57.5902 61.0208 57.6061 60.1511C57.6655 56.9974 58.7273 49.8516 59.1156 47.8301C59.5078 45.8086 59.8089 44.6921 59.8367 44.5432C60.2764 42.2161 61.2511 39.4973 61.9008 38.2201C63.0537 35.9557 63.8422 35.8578 65.7122 35.3407C66.1401 35.2231 66.2233 35.3759 66.5125 35.3759C66.8057 35.3759 66.9761 35.517 67.1821 35.5718C67.3841 35.6267 67.3049 35.6188 67.5109 35.6972C67.7209 35.7755 68.129 35.9127 68.3429 36.0694C68.5569 36.2261 68.6757 36.2966 68.854 36.5199C70.213 38.2201 70.3873 39.7559 70.1852 42.0242C70.1337 42.5805 70.0545 43.1642 69.8841 44.1123C69.7138 45.0603 69.6583 45.4403 69.3176 47.0427C68.8025 49.4716 68.0656 53.068 67.6179 56.0728C67.1702 59.0776 66.8929 63.8846 66.7819 66.7327C66.671 69.5808 66.5561 71.2576 66.4848 73.6787C66.461 74.5053 66.4452 74.948 66.4452 75.5631C66.4452 76.1781 66.4887 77.1615 66.5125 77.5141C66.6036 79.0263 66.6987 81.0047 66.6551 82.1525C66.6116 83.3004 66.4412 83.6687 66.1441 84.4326C65.8469 85.1965 65.1575 85.698 64.6979 85.8625C64.2384 86.0271 63.8976 86.0114 63.7867 86.0114C62.7011 85.9801 62.1346 85.9644 61.3026 85.3493C60.8232 84.9967 60.6845 84.8675 60.2408 84.1858C59.797 83.5041 59.591 82.56 59.3771 81.3573C59.2661 80.7344 58.8937 78.6227 58.7669 77.7687C58.6401 76.9146 58.4619 75.755 58.3509 75.0734C58.24 74.3917 58.1964 73.9177 58.137 73.4515C58.0776 72.9853 58.0775 72.664 58.0419 72.3702C58.0062 72.0725 58.0934 71.9823 57.9666 71.8178C57.8398 71.6533 57.9825 71.7238 57.6655 71.7355C57.3486 71.7434 46.9841 70.4231 46.79 70.4819C46.5959 70.5407 46.5166 70.5367 46.4057 70.6347C46.2948 70.7326 46.3146 70.6229 46.2631 70.8188C46.2116 71.0147 46.2036 71.2419 46.164 71.5984C46.1244 71.9549 46.057 72.6248 46.0253 73.0871C45.9936 73.5494 45.958 74.4152 45.9184 74.8187C45.8827 75.2183 45.8669 75.3907 45.7995 75.6649C45.7322 75.9392 45.6767 76.0919 45.5776 76.3035C44.9834 77.6081 44.0761 78.1957 42.6854 78.3524C42.3645 78.3877 42.1506 78.3524 41.893 78.3211C41.6395 78.2937 41.4889 78.2858 41.271 78.184L41.2789 78.1683Z" fill="#FE8801"/>
<path d="M76.8363 77.8665C76.1905 77.5727 75.6953 76.8675 75.3466 75.7471C75.0851 74.9557 74.9029 74.1722 74.7959 73.3965C74.6929 72.6208 74.6295 71.563 74.6137 70.2193C74.5939 69.7218 74.5859 69.2203 74.5859 68.7228C74.5859 63.2616 75.727 58.3097 78.009 53.8671C80.517 48.8564 83.2863 45.5578 86.3172 43.9711C87.589 43.3169 88.9717 42.9878 90.4733 42.9878C90.6635 42.9878 90.8457 42.9956 91.0201 43.0152C92.902 43.0152 94.5303 43.6969 95.9051 45.0563C97.7157 46.8114 99.0588 49.3618 99.9304 52.7035C100.556 55.0463 100.949 58.2078 101.107 62.1842C101.159 63.3713 101.182 64.3507 101.171 65.1185C101.159 65.8864 101.123 66.8697 101.052 68.0764C101 69.0048 100.953 69.7139 100.909 70.1958C100.865 70.6777 100.814 71.089 100.755 71.422C100.695 71.7589 100.592 72.1664 100.453 72.6482C100.14 73.8705 99.8314 74.7951 99.5263 75.4141C99.2213 76.0331 98.8409 76.5267 98.3892 76.8871C97.9891 77.1966 97.6048 77.416 97.2403 77.5453C96.8758 77.6746 96.44 77.7372 95.9328 77.7372H95.8536C94.8275 77.7372 93.9915 77.4003 93.3457 76.7304C92.9297 76.3347 92.6167 75.8254 92.4186 75.2065C92.2166 74.5875 92.066 73.6041 91.963 72.2604C91.9115 71.7433 91.8639 71.3868 91.8204 71.187C91.7768 70.9911 91.7292 70.8892 91.6777 70.8892C91.6421 70.8892 91.3449 70.9284 90.7903 71.0067C90.2316 71.0851 89.5621 71.1752 88.7776 71.2771C86.7927 71.5356 85.0811 71.7864 83.6429 72.0253C82.2047 72.2682 81.4242 72.4288 81.3054 72.515C81.2856 72.5503 81.2697 72.6051 81.2539 72.6835C81.2341 72.7618 81.2301 72.8363 81.2301 72.9029C81.2301 73.1105 81.1826 73.4278 81.0875 73.8588C80.9924 74.2897 80.8735 74.7246 80.7349 75.1634C80.5962 75.6021 80.4734 75.943 80.3704 76.1859C79.7087 77.463 78.8886 78.0977 77.914 78.0977C77.5812 78.0977 77.2246 78.0193 76.8442 77.8665H76.8363ZM83.9678 66.4466C85.1009 66.3252 86.345 66.2233 87.7039 66.1371C89.0629 66.0509 90.0216 66.0078 90.5763 66.0078H91.7015L91.7807 63.6063C91.8006 63.0539 91.8085 62.5133 91.8085 61.9805C91.8085 59.8454 91.6421 57.8121 91.3132 55.8847C90.9646 53.679 90.5882 52.1472 90.188 51.2854C90.1207 51.113 90.0573 50.9915 90.0058 50.9249C89.9543 50.8583 89.9067 50.8192 89.8632 50.8074C89.8196 50.7956 89.7641 50.8113 89.6928 50.8466C89.2213 51.1208 88.6072 51.7868 87.8505 52.8367C87.0938 53.8867 86.3648 55.0855 85.6675 56.4292C84.8672 57.9649 84.2333 59.3988 83.7737 60.7308C83.3101 62.0667 82.8783 63.6455 82.4821 65.4711L82.2206 66.6582L82.5613 66.6072C82.6643 66.5916 82.8466 66.5681 83.112 66.5446C83.3735 66.5171 83.6588 66.4897 83.9718 66.4544L83.9678 66.4466Z" fill="#FE8801"/>
<path d="M112.831 79.0066C111.487 78.7128 110.505 77.9802 109.879 76.8088C109.653 76.4288 109.467 75.3632 109.316 73.6042C109.17 71.8451 108.999 68.8325 108.805 64.5583C108.595 60.1471 108.492 56.5938 108.492 53.8867C108.492 50.9759 108.615 49.0562 108.857 48.1238C109.364 46.3492 110.287 45.1033 111.626 44.3786C111.8 44.2924 111.967 44.214 112.121 44.1474C112.28 44.0808 112.375 44.0456 112.411 44.0456C112.462 44.0456 112.565 44.0182 112.724 43.9672C112.878 43.9163 113.044 43.8379 113.219 43.7361C114.958 42.9957 116.697 42.5295 118.433 42.3414C120.164 42.1534 121.531 42.0554 122.521 42.0554C123.655 42.0554 124.716 42.1338 125.711 42.2866C128.674 42.7528 131.135 43.7283 133.092 45.2209C135.053 46.7096 136.198 48.1787 136.527 49.6243C136.856 51.0699 137.022 52.1238 137.022 52.778C137.022 54.5527 136.527 56.4723 135.532 58.5408C133.86 61.005 131.907 63.0422 129.681 64.6524C127.45 66.2625 125.295 67.524 123.215 68.4368C121.131 69.3496 119.475 69.996 118.239 70.376C118.223 70.3956 118.191 70.521 118.147 70.7639C118.104 71.0068 118.06 71.281 118.017 71.5905C117.973 71.9 117.933 72.1664 117.898 72.3897C117.811 73.612 117.72 74.5561 117.624 75.2182C117.529 75.8803 117.407 76.3857 117.26 76.7304C117.113 77.0752 116.899 77.3847 116.622 77.6589C116.464 77.8313 116.289 77.9998 116.099 78.1643C115.909 78.3288 115.75 78.4424 115.628 78.513C115.243 78.7363 114.855 78.8812 114.467 78.9517C114.075 79.0183 113.738 79.0536 113.46 79.0536C113.25 79.0536 113.044 79.0379 112.834 79.0027L112.831 79.0066ZM121.376 61.3341C122.371 60.817 123.143 60.39 123.702 60.057C124.261 59.7201 124.835 59.3283 125.426 58.8817C126.313 58.2274 127.216 57.4517 128.128 56.5585C129.043 55.6614 129.7 54.8387 130.101 54.0904C130.501 53.3421 130.703 52.7192 130.703 52.2178C130.703 51.873 130.635 51.5361 130.493 51.2109C130.128 50.4196 129.106 49.7888 127.434 49.3226C126.198 49.0288 125.085 48.8643 124.09 48.8212C123.1 48.7781 122.418 48.7546 122.054 48.7546C120.885 48.7546 119.831 48.8408 118.892 49.0131L118.631 49.0641V54.1296C118.631 55.5243 118.619 56.8798 118.603 58.1961C118.583 59.5163 118.567 60.4409 118.552 60.9737L118.449 62.7288L119.075 62.4702C119.265 62.384 119.574 62.2313 120.002 62.0197C120.43 61.8042 120.885 61.577 121.372 61.3341H121.376Z" fill="#FE8801"/>
<path d="M146.948 79.0067C145.605 78.7129 144.622 77.9803 143.996 76.8089C143.77 76.4289 143.584 75.3633 143.433 73.6043C143.287 71.8453 143.116 68.8326 142.922 64.5585C142.712 60.1472 142.609 56.5939 142.609 53.8868C142.609 50.976 142.732 49.0564 142.974 48.124C143.481 46.3493 144.404 45.1035 145.743 44.3787C145.918 44.2925 146.084 44.2142 146.238 44.1476C146.397 44.081 146.492 44.0457 146.528 44.0457C146.579 44.0457 146.682 44.0183 146.841 43.9674C146.995 43.9164 147.162 43.8381 147.336 43.7362C149.075 42.9958 150.815 42.5296 152.55 42.3415C154.281 42.1535 155.648 42.0555 156.639 42.0555C157.772 42.0555 158.833 42.1339 159.828 42.2867C162.791 42.7529 165.252 43.7284 167.209 45.221C169.17 46.7097 170.315 48.1788 170.644 49.6244C170.973 51.07 171.139 52.1239 171.139 52.7781C171.139 54.5528 170.644 56.4724 169.65 58.541C167.978 61.0052 166.024 63.0423 163.798 64.6525C161.567 66.2626 159.412 67.5241 157.332 68.4369C155.248 69.3497 153.592 69.9961 152.356 70.3761C152.34 70.3957 152.308 70.5211 152.265 70.764C152.221 71.0069 152.177 71.2811 152.134 71.5906C152.09 71.9001 152.051 72.1665 152.015 72.3898C151.928 73.6121 151.837 74.5563 151.742 75.2183C151.647 75.8804 151.524 76.3858 151.377 76.7306C151.231 77.0753 151.017 77.3848 150.739 77.659C150.581 77.8314 150.406 77.9999 150.216 78.1644C150.026 78.329 149.868 78.4426 149.745 78.5131C149.361 78.7364 148.972 78.8813 148.584 78.9519C148.192 79.0185 147.855 79.0537 147.578 79.0537C147.368 79.0537 147.162 79.038 146.952 79.0028L146.948 79.0067ZM155.494 61.3342C156.488 60.8171 157.261 60.3901 157.819 60.0571C158.378 59.7202 158.952 59.3284 159.543 58.8818C160.43 58.2276 161.333 57.4519 162.245 56.5586C163.16 55.6615 163.818 54.8388 164.218 54.0905C164.618 53.3423 164.82 52.7194 164.82 52.2179C164.82 51.8731 164.753 51.5362 164.61 51.2111C164.246 50.4197 163.223 49.789 161.551 49.3228C160.315 49.0289 159.202 48.8644 158.208 48.8213C157.217 48.7782 156.536 48.7547 156.171 48.7547C155.002 48.7547 153.948 48.8409 153.009 49.0133L152.748 49.0642V54.1297C152.748 55.5244 152.736 56.8799 152.72 58.1962C152.7 59.5165 152.685 60.441 152.669 60.9738L152.566 62.7289L153.192 62.4704C153.382 62.3842 153.691 62.2314 154.119 62.0198C154.547 61.8044 155.002 61.5771 155.49 61.3342H155.494Z" fill="#FE8801"/>
<path d="M192.142 78.3054C190.26 78.1173 188.552 77.326 187.019 75.9274C186.46 75.375 186.183 74.8069 186.183 74.2232C186.183 74.137 186.191 74.0508 186.211 73.9646C186.298 73.2751 186.734 72.7227 187.518 72.3114C187.744 72.2095 187.97 72.1547 188.2 72.1547H188.619C188.948 72.1547 189.222 72.1978 189.428 72.284C189.531 72.3192 189.685 72.3937 189.883 72.5151C190.081 72.6365 190.295 72.7658 190.521 72.9029C190.747 73.0597 190.969 73.1889 191.187 73.2908C191.405 73.3927 191.567 73.4553 191.67 73.471C191.793 73.4867 191.912 73.4945 192.035 73.4945C192.803 73.4945 193.56 73.0557 194.309 72.1782C195.18 71.1635 195.909 69.714 196.504 67.8374C196.627 67.4418 196.773 66.8776 196.947 66.145C197.122 65.4124 197.28 64.7112 197.419 64.0412C197.558 63.3674 197.629 62.9639 197.629 62.8268C197.629 62.8111 197.621 62.8033 197.605 62.8033C197.585 62.8033 197.546 62.8385 197.474 62.9051C197.387 62.9913 197.272 63.1284 197.134 63.3165C195.026 65.7297 192.134 66.9873 188.457 67.0892C187.082 67.0892 185.854 66.8659 184.772 66.4153C183.691 65.9687 182.629 65.2518 181.583 64.2724C180.101 62.8581 178.925 60.9306 178.057 58.486C177.288 56.1785 176.908 53.7222 176.908 51.1209C176.908 50.1728 176.96 49.2012 177.063 48.2022C177.221 46.7214 177.486 45.6088 177.859 44.8683C178.235 44.1279 178.806 43.5873 179.57 43.2425C180.129 42.9996 180.668 42.8821 181.191 42.8821C182.027 42.8821 182.827 43.1837 183.596 43.7871C184.222 44.2885 184.673 44.978 184.943 45.8673C185.212 46.7566 185.418 48.2062 185.557 50.2198C185.89 54.7525 186.401 57.7299 187.098 59.1599C187.78 60.6251 188.77 61.3577 190.077 61.3577C190.355 61.3577 190.593 61.3302 190.783 61.2793C190.973 61.2284 191.234 61.1148 191.567 60.9424C193.291 60.1001 194.614 58.1883 195.537 55.207C195.85 54.1218 196.203 52.492 196.595 50.3217C196.987 48.1513 197.245 46.3766 197.367 45.0015C197.403 44.4491 197.498 44.0339 197.657 43.7479C197.811 43.4658 198.065 43.2347 198.413 43.0623C198.552 42.9957 198.687 42.9369 198.818 42.8938C198.948 42.8507 199.115 42.8233 199.313 42.8155C199.515 42.8076 199.788 42.8037 200.137 42.8037C200.327 42.7881 200.493 42.7763 200.632 42.7763C200.771 42.7763 200.886 42.7841 200.973 42.8037C201.163 42.8037 201.321 42.8233 201.444 42.8664C201.567 42.9095 201.706 42.9839 201.86 43.0858C203.306 43.8968 204.376 45.6597 205.073 48.3824C205.612 50.2943 205.882 52.5939 205.882 55.2814C205.882 55.728 205.874 56.1864 205.858 56.6526C205.771 62.388 204.725 67.0931 202.724 70.76C202.165 71.7943 201.531 72.7776 200.818 73.7178C200.105 74.658 199.432 75.3946 198.806 75.9274C196.852 77.5297 194.836 78.3289 192.744 78.3289C192.554 78.3289 192.352 78.321 192.142 78.3014V78.3054Z" fill="#FE8801"/>
<path d="M0.801542 19.2826C1.60978 20.2934 2.71912 21.0808 3.72545 21.8918C4.71593 22.691 5.63907 23.5803 6.895 23.9524C9.3197 24.6772 11.7127 23.4431 11.9306 20.8614C12.0455 19.5255 10.4172 18.2758 9.13745 18.7576H9.37517C9.95361 18.9888 10.5281 19.2238 11.1065 19.4628C10.8847 19.1886 10.6153 18.93 10.3062 18.7537C9.56931 18.4991 9.36329 18.4051 9.6842 18.4795C9.81098 18.5147 9.78721 18.4912 9.61685 18.409C9.07406 18.0799 10.3657 18.9535 9.28801 18.1857C8.86804 17.8879 8.456 17.5902 8.02811 17.3042C6.57408 16.3209 5.16759 15.3258 3.52735 14.6715C2.3982 14.221 0.944172 14.9732 0.373653 15.9409C-0.299876 17.0809 0.0289646 18.3149 0.809466 19.2865L0.801542 19.2826Z" fill="#FF8B00"/>
<path d="M20.9597 0.544709C20.6467 0.317486 20.306 0.176451 19.9296 0.0863455C18.3488 -0.293665 16.9344 0.579968 16.4114 2.06084C15.7617 3.89429 16.459 6.0294 16.8076 7.86286C17.1682 9.75116 17.596 12.2506 19.4978 13.1791C20.3971 13.6179 21.7521 13.657 22.4613 12.7991C23.9906 10.946 23.5033 8.70515 22.9645 6.51519C22.5207 4.70916 22.2513 2.82086 21.554 1.1872L19.573 4.59947L19.8504 4.58771C22.1483 4.4741 22.6792 1.80227 20.9597 0.540792V0.544709Z" fill="#42C2B2"/>
<path d="M33.1772 15.7923C35.8435 14.5465 38.185 11.9216 39.3102 9.26156C40.1819 7.20088 37.1906 4.97174 35.3998 6.28807C33.0623 8.004 31.0615 10.7385 30.1106 13.4613C29.4609 15.3182 31.6677 16.4974 33.1811 15.7923H33.1772Z" fill="#1AB3D3"/>
<path d="M81.422 30.8514C81.0892 30.726 80.7603 30.6045 80.4236 30.5027C79.7183 30.2872 79.1042 30.7613 78.8586 31.3802L78.7516 31.6545L79.6748 30.7417L79.1478 30.8866C77.781 31.2666 77.0678 32.7592 77.6146 34.0442C78.1811 35.3723 79.7065 35.8111 80.9703 35.1647C82.6819 34.2871 84.2666 33.0883 85.7128 31.8151C86.9291 30.7417 86.9013 28.5478 85.7128 27.4704C84.4766 26.3461 82.5432 26.2521 81.319 27.4704C79.96 28.822 78.7081 30.3264 77.7334 31.964C78.9735 31.8073 80.2136 31.6466 81.4497 31.4899L80.9584 31.0786L81.3467 32.0031L81.3626 31.7172C81.1526 32.0776 80.9426 32.4419 80.7326 32.8023C81.0377 32.6691 81.3348 32.5242 81.628 32.3675C82.3213 32.0031 82.0519 31.0903 81.4259 30.8514H81.422Z" fill="#42C2B2"/>
<path d="M70.0268 30.3184C72.4436 30.0324 73.3707 27.9757 73.6084 25.8014C73.7193 24.7867 73.6163 23.7603 73.125 22.8436C72.5823 22.0679 72.4436 21.9073 72.7011 22.3695L72.2019 21.731C71.5838 21.1198 70.6924 20.7555 69.8168 20.8182C70.4943 21.0963 71.1758 21.3745 71.8533 21.6526C71.7027 21.5116 71.5442 21.3823 71.3778 21.2609C70.4349 20.5283 69.2622 20.2109 68.1528 20.8495C67.087 21.4646 66.6988 22.6673 66.9286 23.8191C66.9761 24.0189 67.0118 24.2226 67.0316 24.4263C67.2772 23.5017 67.5268 22.5772 67.7725 21.6526C67.3644 22.0483 67.0276 22.5733 66.8731 23.1178C66.7107 23.9993 66.6869 24.2265 66.8057 23.8034C66.9286 23.3568 66.9048 23.6075 66.7305 24.5517C66.7661 25.3509 67.087 26.0404 67.2851 26.7965C67.3683 27.1138 67.2574 26.5027 67.3168 27.055C67.3604 27.4468 67.4317 27.9678 67.5585 28.3674C67.8557 29.3273 68.8818 30.4477 70.0189 30.3145L70.0268 30.3184Z" fill="#FF8B00"/>
<path d="M213.582 42.467V43.2349H212.085V47.0977H211.158V43.2349H209.66V42.467H213.582ZM218.642 47.0977L218.471 44.3749C218.456 44.0184 218.456 43.5757 218.436 43.0821H218.384C218.265 43.4895 218.127 44.0341 217.988 44.4611L217.144 47.0311H216.182L215.338 44.3945C215.25 44.038 215.116 43.4935 215.013 43.0821H214.961C214.961 43.5091 214.945 43.9518 214.926 44.3749L214.755 47.0977H213.86L214.204 42.467H215.599L216.407 44.7314C216.51 45.0879 216.598 45.4288 216.716 45.9067H216.732C216.851 45.4797 216.954 45.0919 217.057 44.751L217.865 42.471H219.208L219.569 47.1016H218.638L218.642 47.0977Z" fill="#FE8801"/>
</g>
<defs>
<clipPath id="clip0_0_8">
<rect width="219.574" height="86" fill="white"/>
</clipPath>
</defs>
</svg>
